HIERARCHY
ROOT hip
{
  OFFSET 0 0 0
  CHANNELS 6 Xposition Yposition Zposition Zrotation Yrotation Xrotation
  JOINT abdomen
  {
    OFFSET 0 20.6881 -0.73152
    CHANNELS 3 Zrotation Xrotation Yrotation
    JOINT chest
    {
      OFFSET 0 11.7043 -0.48768
      CHANNELS 3 Zrotation Xrotation Yrotation
      JOINT neck
      {
        OFFSET 0 22.1894 -2.19456
        CHANNELS 3 Zrotation Xrotation Yrotation
        JOINT head
        {
          OFFSET -0.24384 7.07133 1.2192
          CHANNELS 3 Zrotation Xrotation Yrotation
          JOINT leftEye
          {
            OFFSET 4.14528 8.04674 8.04672
            CHANNELS 3 Zrotation Xrotation Yrotation
            End Site
            {
              OFFSET 1 0 0
            }
          }
          JOINT rightEye
          {
            OFFSET -3.6576 8.04674 8.04672
            CHANNELS 3 Zrotation Xrotation Yrotation
            End Site
            {
              OFFSET 1 0 0
            }
          }
        }
      }
      JOINT rCollar
      {
        OFFSET -2.68224 19.2634 -4.8768
        CHANNELS 3 Zrotation Xrotation Yrotation
        JOINT rShldr
        {
          OFFSET -8.77824 -1.95073 1.46304
          CHANNELS 3 Zrotation Xrotation Yrotation
          JOINT rForeArm
          {
            OFFSET -28.1742 -1.7115 0.48768
            CHANNELS 3 Zrotation Xrotation Yrotation
            JOINT rHand
            {
              OFFSET -22.5879 0.773209 7.07136
              CHANNELS 3 Zrotation Xrotation Yrotation
              JOINT rThumb1
              {
                OFFSET -1.2192 -0.487915 3.41376
                CHANNELS 3 Zrotation Xrotation Yrotation
                JOINT rThumb2
                {
                  OFFSET -3.37035 -0.52449 3.41376
                  CHANNELS 3 Zrotation Xrotation Yrotation
                  End Site
                  {
                    OFFSET -1.78271 -1.18214 1.43049
                  }
                }
              }
              JOINT rIndex1
              {
                OFFSET -7.75947 0.938293 5.60832
                CHANNELS 3 Zrotation Xrotation Yrotation
                JOINT rIndex2
                {
                  OFFSET -2.54057 -0.884171 1.56538
                  CHANNELS 3 Zrotation Xrotation Yrotation
                  End Site
                  {
                    OFFSET -1.62519 -0.234802 1.16502
                  }
                }
              }
              JOINT rMid1
              {
                OFFSET -8.24714 1.18213 3.41376
                CHANNELS 3 Zrotation Xrotation Yrotation
                JOINT rMid2
                {
                  OFFSET -3.10165 -0.590103 1.0647
                  CHANNELS 3 Zrotation Xrotation Yrotation
                  End Site
                  {
                    OFFSET -2.48547 -0.328903 0.83742
                  }
                }
              }
              JOINT rRing1
              {
                OFFSET -8.82822 0.546677 1.51678
                CHANNELS 3 Zrotation Xrotation Yrotation
                JOINT rRing2
                {
                  OFFSET -2.60934 -0.819778 -0.0198488
                  CHANNELS 3 Zrotation Xrotation Yrotation
                  End Site
                  {
                    OFFSET -2.33842 -0.294052 0.168128
                  }
                }
              }
              JOINT rPinky1
              {
                OFFSET -8.27202 -0.0477905 -0.4584
                CHANNELS 3 Zrotation Xrotation Yrotation
                JOINT rPinky2
                {
                  OFFSET -1.82734 -0.647385 -0.700984
                  CHANNELS 3 Zrotation Xrotation Yrotation
                  End Site
                  {
                    OFFSET -1.69225 -0.51767 -0.607171
                  }
                }
              }
            }
          }
        }
      }
      JOINT lCollar
      {
        OFFSET 2.68224 19.2634 -4.8768
        CHANNELS 3 Zrotation Xrotation Yrotation
        JOINT lShldr
        {
          OFFSET 8.77824 -1.95073 1.46304
          CHANNELS 3 Zrotation Xrotation Yrotation
          JOINT lForeArm
          {
            OFFSET 28.1742 -1.7115 0.48768
            CHANNELS 3 Zrotation Xrotation Yrotation
            JOINT lHand
            {
              OFFSET 22.5879 0.773209 7.07136
              CHANNELS 3 Zrotation Xrotation Yrotation
              JOINT lThumb1
              {
                OFFSET 1.2192 -0.487915 3.41376
                CHANNELS 3 Zrotation Xrotation Yrotation
                JOINT lThumb2
                {
                  OFFSET 3.37035 -0.52449 3.41376
                  CHANNELS 3 Zrotation Xrotation Yrotation
                  End Site
                  {
                    OFFSET 1.78271 -1.18214 1.43049
                  }
                }
              }
              JOINT lIndex1
              {
                OFFSET 7.75947 0.938293 5.60832
                CHANNELS 3 Zrotation Xrotation Yrotation
                JOINT lIndex2
                {
                  OFFSET 2.54057 -0.884171 1.56538
                  CHANNELS 3 Zrotation Xrotation Yrotation
                  End Site
                  {
                    OFFSET 1.62519 -0.234802 1.16502
                  }
                }
              }
              JOINT lMid1
              {
                OFFSET 8.24714 1.18213 3.41376
                CHANNELS 3 Zrotation Xrotation Yrotation
                JOINT lMid2
                {
                  OFFSET 3.10165 -0.590103 1.0647
                  CHANNELS 3 Zrotation Xrotation Yrotation
                  End Site
                  {
                    OFFSET 2.48547 -0.328903 0.83742
                  }
                }
              }
              JOINT lRing1
              {
                OFFSET 8.82822 0.546677 1.51678
                CHANNELS 3 Zrotation Xrotation Yrotation
                JOINT lRing2
                {
                  OFFSET 2.60934 -0.819778 -0.0198488
                  CHANNELS 3 Zrotation Xrotation Yrotation
                  End Site
                  {
                    OFFSET 2.33842 -0.294052 0.168128
                  }
                }
              }
              JOINT lPinky1
              {
                OFFSET 8.27202 -0.0477905 -0.4584
                CHANNELS 3 Zrotation Xrotation Yrotation
                JOINT lPinky2
                {
                  OFFSET 1.82734 -0.647385 -0.700984
                  CHANNELS 3 Zrotation Xrotation Yrotation
                  End Site
                  {
                    OFFSET 1.69225 -0.51767 -0.607171
                  }
                }
              }
            }
          }
        }
      }
    }
  }
  JOINT rButtock
  {
    OFFSET -8.77824 4.35084 1.2192
    CHANNELS 3 Zrotation Xrotation Yrotation
    JOINT rThigh
    {
      OFFSET 0 -1.70687 -2.19456
      CHANNELS 3 Zrotation Xrotation Yrotation
      JOINT rShin
      {
        OFFSET 0 -36.8199 0.73152
        CHANNELS 3 Zrotation Xrotation Yrotation
        JOINT rFoot
        {
          OFFSET 0.73152 -45.1104 -5.12064
          CHANNELS 3 Zrotation Xrotation Yrotation
          End Site
          {
            OFFSET -1.1221 -3.69964 12.103
          }
        }
      }
    }
  }
  JOINT lButtock
  {
    OFFSET 8.77824 4.35084 1.2192
    CHANNELS 3 Zrotation Xrotation Yrotation
    JOINT lThigh
    {
      OFFSET 0 -1.70687 -2.19456
      CHANNELS 3 Zrotation Xrotation Yrotation
      JOINT lShin
      {
        OFFSET 0 -36.8199 0.73152
        CHANNELS 3 Zrotation Xrotation Yrotation
        JOINT lFoot
        {
          OFFSET -0.73152 -45.1104 -5.12064
          CHANNELS 3 Zrotation Xrotation Yrotation
          End Site
          {
            OFFSET 1.1221 -3.69964 12.103
          }
        }
      }
    }
  }
}
MOTION
Frames:	4
Frame Time:	0.03333
0.033403001725673676 62.193459272384644 0.091505516320467 -4.314241409301758 2.623167037963867 4.979438304901123 -2.463679552078247 14.771883010864258 3.5110597610473633 2.8178560733795166 -9.696147918701172 1.066485047340393 -5.308261871337891 15.117935180664062 -3.962925910949707 9.113353729248047 -24.205068588256836 -5.664161205291748 -0.019587809219956398 0.07043265551328659 -0.018941795453429222 0.00821450725197792 0.018280550837516785 0.06351577490568161 -0.06949421763420105 -0.014079330489039421 -0.012065267190337181 44.97502136230469 36.97531509399414 19.355453491210938 -27.58143424987793 -28.50238037109375 64.70975494384766 -0.19917073845863342 -12.13209056854248 -1.760815143585205 0.009532022289931774 -0.023366181179881096 0.008918744511902332 -0.05772220715880394 0.0069058965891599655 -0.05458427593111992 -0.008613546378910542 -0.014955585822463036 -0.012664786539971828 7.7324652671813965 5.47785758972168 0.37630897760391235 -0.08926881104707718 0.021465077996253967 -0.04189031198620796 2.8388280868530273 0.9741147756576538 0.1253567785024643 0.0065708402544260025 -0.0717281773686409 -0.022408634424209595 10.333090782165527 0.7521341443061829 0.0001377519074594602 -0.03117958828806877 0.008334390819072723 -0.053873855620622635 2.227550983428955 -0.8105128407478333 -0.1930985301733017 0.02705015242099762 0.003952478989958763 0.022973354905843735 -52.185997009277344 40.07033157348633 -29.77998161315918 26.96768569946289 -26.650758743286133 -61.724853515625 0.17725113034248352 -13.570947647094727 1.9181365966796875 0.04552583023905754 -0.028650183230638504 0.10751709342002869 -0.08753588050603867 -0.011489607393741608 0.06042158603668213 -0.011143630370497704 -0.08037509024143219 0.04167025536298752 -7.814470291137695 5.45769739151001 -0.3420182764530182 0.05761571601033211 0.06906147301197052 -0.01684853807091713 -2.8667781352996826 0.9931790232658386 -0.09968411922454834 -0.04370580613613129 0.00837330985814333 0.05919918045401573 -10.279755592346191 0.6757276654243469 -0.01066563930362463 -0.03379208594560623 -0.023213177919387817 -0.02784031629562378 -2.1619925498962402 -0.7226276397705078 0.22404953837394714 0.050966933369636536 -0.0007769018411636353 -0.043467409908771515 -25.336015701293945 -40.512237548828125 -20.77301597595215 -1.4522936344146729 65.58533477783203 2.6064133644104004 -3.588442087173462 -10.997488021850586 -9.775419235229492 0.13903135061264038 0.07201150804758072 0.10200030356645584 29.916667938232422 -39.53612518310547 22.633981704711914 1.4543026685714722 65.69417572021484 -2.6063296794891357 4.315654277801514 -11.01434326171875 13.71236801147461
0.07579512894153595 61.98531985282898 0.1713094301521778 -4.200159072875977 3.2820754051208496 4.709052085876465 -2.5134291648864746 14.75525188446045 3.419588565826416 2.909377336502075 -9.708900451660156 1.1371803283691406 -5.34999418258667 15.161466598510742 -4.066930294036865 9.188018798828125 -24.106733322143555 -5.778713226318359 0.08377666771411896 0.12119930237531662 0.05925123393535614 -0.022903993725776672 -0.02478971891105175 0.018568430095911026 -0.13021516799926758 0.005612556356936693 -0.0336240753531456 44.791133880615234 36.50996780395508 19.50462532043457 -27.48501968383789 -28.524070739746094 64.90557861328125 -0.23032021522521973 -12.166651725769043 -1.7945502996444702 0.04359123110771179 -0.0613863430917263 0.046031489968299866 -0.09204482287168503 0.011652663350105286 -0.1604914516210556 -0.03739276900887489 -0.12092424929141998 -0.07833841443061829 7.761831760406494 5.511710166931152 0.3975759744644165 -0.23457077145576477 0.040238332003355026 -0.011220099404454231 2.8707644939422607 1.0032109022140503 0.05058613419532776 -0.10480362921953201 -0.20550371706485748 -0.04759945720434189 10.26427173614502 0.7794507741928101 -0.08565216511487961 -0.031755365431308746 -0.058073244988918304 -0.10305025428533554 2.273892402648926 -0.8283174633979797 -0.11927880346775055 0.07754731178283691 0.042960502207279205 0.10517078638076782 -52.01445388793945 40.074928283691406 -30.145021438598633 27.017250061035156 -26.859424591064453 -61.880733489990234 0.21702055633068085 -13.5153226852417 1.8134244680404663 0.07310060411691666 -0.09559040516614914 0.13971875607967377 -0.0416375994682312 0.09304322302341461 0.09335857629776001 -0.025947364047169685 -0.030693724751472473 0.12116648256778717 -7.8659749031066895 5.50712251663208 -0.3150452971458435 0.07925059646368027 0.12437397241592407 -0.019219189882278442 -2.883655548095703 0.9913035035133362 -0.15881116688251495 -0.07107594609260559 -0.021693160757422447 0.04360402002930641 -10.300267219543457 0.7244284152984619 0.01742616295814514 -0.02172841876745224 -0.0827794000506401 -0.0015226725954562426 -2.1498780250549316 -0.6384895443916321 0.30146899819374084 0.059643764048814774 -0.008687595836818218 -0.0629136860370636 -25.380775451660156 -40.65418243408203 -20.57344627380371 -1.492897868156433 65.56700134277344 2.6309525966644287 -3.6323132514953613 -11.11843490600586 -9.884349822998047 0.13994231820106506 0.12411732226610184 0.11026530712842941 29.87047576904297 -39.65000915527344 22.445816040039062 1.6567784547805786 65.77238464355469 -2.828263282775879 4.287553787231445 -11.038252830505371 13.6002836227417
0.32538101077079773 58.245277404785156 0.5490940064191818 5.072906017303467 -63.339378356933594 15.497599601745605 -2.0436387062072754 14.973638534545898 11.076200485229492 -1.0265177488327026 -11.646157264709473 3.271634578704834 0.6553564667701721 12.542217254638672 9.361523628234863 3.0095462799072266 -22.437658309936523 19.725923538208008 0.4681377708911896 0.614101231098175 -0.27600252628326416 -0.038597408682107925 -0.09769361466169357 -0.09804118424654007 -0.13273325562477112 0.3671233355998993 -0.1973649114370346 54.37873077392578 78.08171081542969 8.97213077545166 -23.64664649963379 -48.98133850097656 102.72551727294922 -20.443838119506836 -72.48029327392578 -27.688034057617188 0.3388638496398926 -0.6884013414382935 -0.13730110228061676 0.06251976639032364 -0.35193437337875366 -0.13837112486362457 -0.06858286261558533 -0.3930570185184479 -0.26008522510528564 7.614530086517334 5.807919025421143 0.39174559712409973 -0.09031673520803452 0.051401957869529724 -0.16646377742290497 2.921203374862671 1.1212481260299683 -0.25425469875335693 -0.49217161536216736 -0.686989963054657 -0.25449562072753906 10.413785934448242 0.9645384550094604 0.10599391162395477 0.12338227778673172 -0.2451644241809845 -0.3908577263355255 2.5069761276245117 -1.2888209819793701 -0.46098753809928894 0.3078443109989166 -0.015371817164123058 0.12532766163349152 -52.786048889160156 1.7299084663391113 -46.855411529541016 27.540454864501953 -27.64377784729004 -63.35673522949219 0.45641934871673584 24.437549591064453 -3.9795737266540527 -0.2659898102283478 -0.2294856756925583 -0.02979578822851181 0.057861149311065674 -0.17520450055599213 -0.00475999666377902 -0.08534111082553864 0.016733886674046516 0.15540406107902527 -8.234705924987793 5.723282814025879 -0.1545781046152115 0.2391219437122345 0.27580010890960693 0.05034441873431206 -3.2734391689300537 1.0047154426574707 -0.467583566904068 0.055512573570013046 0.0024832943454384804 0.14037643373012543 -10.623000144958496 0.4036787152290344 0.030362993478775024 -0.25273096561431885 -0.015382029116153717 -0.1735544502735138 -1.896278977394104 -0.552823007106781 0.4104849100112915 0.2548947036266327 -0.4381416141986847 -0.21638524532318115 -23.567630767822266 -34.027099609375 -22.641551971435547 -1.1169973611831665 80.21796417236328 3.865908145904541 -9.634654998779297 -22.038143157958984 -21.936199188232422 0.18176783621311188 0.045547004789114 0.2652834355831146 59.67292022705078 -49.441646575927734 53.925148010253906 3.1516451835632324 71.59020233154297 -3.074833631515503 0.7240208983421326 -1.4990350008010864 4.297516345977783
0.37527941167354584 55.33953905105591 0.9567816741764545 -4.808837413787842 -57.09156799316406 9.00645637512207 -1.2769775390625 11.916936874389648 13.632888793945312 -1.8301020860671997 -12.09886360168457 3.198932409286499 -1.6305192708969116 13.071496963500977 8.942425727844238 5.438086986541748 -22.545778274536133 17.264938354492188 -0.3002290427684784 0.4468027353286743 -0.1087777316570282 0.010997910052537918 0.10245916247367859 0.17422884702682495 -0.3541920483112335 -0.17137041687965393 -0.3964509963989258 33.1397819519043 80.89028930664062 34.483375549316406 -26.987363815307617 -46.13573455810547 94.758544921875 -38.84847640991211 -78.73216247558594 -46.225399017333984 0.4967510998249054 -0.4731673002243042 -0.03725234046578407 0.10593419522047043 -0.0005671423277817667 -0.336503267288208 0.07884927839040756 0.0100873913615942 -0.355475515127182 7.923829078674316 5.721399784088135 0.1661117672920227 -0.26218441128730774 -0.12248843163251877 -0.06209498643875122 3.1287057399749756 1.111894130706787 -0.3941640257835388 -0.37331098318099976 -0.6962052583694458 0.14862707257270813 10.369053840637207 0.7627244591712952 0.20368413627147675 0.2881303131580353 -0.14797930419445038 -0.22777065634727478 2.3934309482574463 -1.2335413694381714 -0.020543577149510384 -0.1959071308374405 -0.10280612111091614 0.257156640291214 -65.3750228881836 3.218562364578247 -32.510257720947266 28.12006187438965 -32.92264938354492 -71.05475616455078 0.3391849398612976 25.430532455444336 -4.361567974090576 -0.30296292901039124 -0.1743323802947998 -0.024363724514842033 -0.2512452006340027 -0.2186257541179657 -0.08356881886720657 -0.23754537105560303 -0.059774383902549744 0.38360992074012756 -8.018386840820312 5.481147766113281 -0.2546841502189636 0.5426961183547974 0.5934383869171143 -0.4484867453575134 -3.073993682861328 0.9589378237724304 0.15609262883663177 -0.21568426489830017 0.5669485330581665 -0.345263808965683 -10.559671401977539 0.5543808937072754 0.010717806406319141 -0.2046336680650711 -0.13163010776042938 -0.08561086654663086 -2.192965269088745 -0.630149245262146 0.37609565258026123 -0.4137568771839142 -0.3311390280723572 -0.08528478443622589 -24.265174865722656 -33.90418243408203 -28.198820114135742 -9.696859359741211 83.73931121826172 12.0977201461792 -10.803725242614746 -23.72534942626953 -21.635955810546875 0.23419666290283203 0.027423815801739693 0.3387145400047302 62.014488220214844 -45.94416046142578 56.99690246582031 1.7165213823318481 69.79121398925781 -1.7420109510421753 0.08231271058320999 2.4396040439605713 4.634860992431641
